<?xml version="1.0" encoding="UTF-8"?>
<!DOCTYPE svg PUBLIC "-//W3C//DTD SVG 1.1//EN" "http://www.w3.org/Graphics/SVG/1.1/DTD/svg11.dtd">
<!-- Creator: CorelDRAW -->
<svg xmlns="http://www.w3.org/2000/svg" xml:space="preserve" width="389.467mm" height="220.134mm" version="1.1" style="shape-rendering:geometricPrecision; text-rendering:geometricPrecision; image-rendering:optimizeQuality; fill-rule:evenodd; clip-rule:evenodd"
viewBox="0 0 38946.7 22013.4"
 xmlns:xlink="http://www.w3.org/1999/xlink"
 xmlns:xodm="http://www.corel.com/coreldraw/odm/2003">
 <defs>
  <style type="text/css">
   <![CDATA[
    .str0 {stroke:#2B2A29;stroke-width:20;stroke-miterlimit:22.9256}
    .fil4 {fill:none}
    .fil1 {fill:#FFFFFF;fill-rule:evenodd}
    .fil0 {fill:#FFFFFF;fill-rule:evenodd}
    .fil2 {fill:#FFFFFF;fill-rule:evenodd}
    .fil93 {fill:#946D40}
    .fil6 {fill:#956E41}
    .fil7 {fill:#966F42}
    .fil8 {fill:#967042}
    .fil9 {fill:#977043}
    .fil10 {fill:#977143}
    .fil11 {fill:#987144}
    .fil12 {fill:#987244}
    .fil13 {fill:#997245}
    .fil14 {fill:#997345}
    .fil15 {fill:#9A7345}
    .fil16 {fill:#9A7346}
    .fil17 {fill:#9A7446}
    .fil18 {fill:#9B7446}
    .fil19 {fill:#9B7447}
    .fil20 {fill:#9B7547}
    .fil21 {fill:#9C7547}
    .fil22 {fill:#9C7548}
    .fil23 {fill:#9C7648}
    .fil24 {fill:#9D7648}
    .fil25 {fill:#9D7749}
    .fil26 {fill:#9E774A}
    .fil27 {fill:#9E784A}
    .fil28 {fill:#9F794B}
    .fil29 {fill:#A0794B}
    .fil30 {fill:#A07A4C}
    .fil31 {fill:#A17B4C}
    .fil32 {fill:#A17B4D}
    .fil33 {fill:#A27C4D}
    .fil34 {fill:#A27C4E}
    .fil35 {fill:#A27D4E}
    .fil36 {fill:#A37D4E}
    .fil37 {fill:#A37D4F}
    .fil38 {fill:#A37E4F}
    .fil39 {fill:#A47E4F}
    .fil40 {fill:#A47E50}
    .fil41 {fill:#A47F50}
    .fil42 {fill:#A57F50}
    .fil43 {fill:#A57F51}
    .fil44 {fill:#A58051}
    .fil3 {fill:#A67945}
    .fil45 {fill:#A68051}
    .fil46 {fill:#A68052}
    .fil47 {fill:#A68152}
    .fil48 {fill:#A78152}
    .fil49 {fill:#A78153}
    .fil50 {fill:#A78253}
    .fil51 {fill:#A88253}
    .fil52 {fill:#A88254}
    .fil53 {fill:#A88354}
    .fil54 {fill:#A98354}
    .fil55 {fill:#A98455}
    .fil56 {fill:#AA8455}
    .fil57 {fill:#AA8556}
    .fil58 {fill:#AB8556}
    .fil59 {fill:#AB8656}
    .fil60 {fill:#AB8657}
    .fil61 {fill:#AC8657}
    .fil62 {fill:#AC8757}
    .fil63 {fill:#AC8758}
    .fil64 {fill:#AD8858}
    .fil65 {fill:#AD8859}
    .fil66 {fill:#AE8959}
    .fil67 {fill:#AF8A5A}
    .fil68 {fill:#B08B5C}
    .fil69 {fill:#B18C5D}
    .fil70 {fill:#B28E5E}
    .fil71 {fill:#B38F5F}
    .fil72 {fill:#B59060}
    .fil73 {fill:#B69161}
    .fil74 {fill:#B79262}
    .fil75 {fill:#B89463}
    .fil76 {fill:#B99564}
    .fil77 {fill:#BA9665}
    .fil78 {fill:#BB9767}
    .fil79 {fill:#BC9868}
    .fil80 {fill:#BD9A69}
    .fil81 {fill:#BF9B6A}
    .fil82 {fill:#C09C6B}
    .fil83 {fill:#C19D6C}
    .fil84 {fill:#C29E6D}
    .fil85 {fill:#C3A06E}
    .fil86 {fill:#C4A16F}
    .fil87 {fill:#C5A270}
    .fil88 {fill:#C6A371}
    .fil89 {fill:#C8A573}
    .fil90 {fill:#C9A674}
    .fil91 {fill:#CAA775}
    .fil92 {fill:#CAA775}
    .fil5 {fill:#FEFEFE;fill-rule:evenodd}
    .fil94 {fill:url(#id1)}
   ]]>
  </style>
      <clipPath id="id0">
       <path d="M19966.06 9416.18c-359.41,-433.05 -1417.64,-1447.32 -1795.8,-1829.25 -214.61,-216.75 -327.19,-360.51 -258.18,-196.92 226.74,537.46 357.08,755.29 907.09,1595.88 269.7,449.71 1541.78,1709.27 2011.57,2076.32 82.3,64.3 78.07,37.76 42.73,-88.55 -95.71,-341.85 -696.08,-1276.99 -907.41,-1557.48z"/>
      </clipPath>
  <linearGradient id="id1" gradientUnits="userSpaceOnUse" x1="21983.67" y1="10090.02" x2="21983.67" y2="8178.63">
   <stop offset="0" style="stop-opacity:1; stop-color:#946D40"/>
   <stop offset="0.329412" style="stop-opacity:1; stop-color:#9F7646"/>
   <stop offset="0.521569" style="stop-opacity:1; stop-color:#AB7F4C"/>
   <stop offset="0.654902" style="stop-opacity:1; stop-color:#BA9360"/>
   <stop offset="1" style="stop-opacity:1; stop-color:#CAA775"/>
  </linearGradient>
 </defs>
 <g id="Capa_x0020_1">
  <metadata id="CorelCorpID_0Corel-Layer"/>
  <g id="_1980435008448">
   <g>
    <path class="fil0" d="M30209.02 9417.79c-2.97,36.11 -7.72,60.81 13.21,84.56l1194.99 1395.63c81.24,96.26 50.13,97.06 237.43,97.92 134.63,0.61 311.54,7.64 441.81,-3.13 -0.98,-49.24 7.53,-14.67 -48.85,-89.74 -125.59,-167.21 -944.91,-1137.42 -926.09,-1191.02 5.84,-16.62 307.32,-213.33 360.77,-259.88 377.88,-329.14 450.35,-1010.71 230.26,-1447.46 -176.35,-349.92 -478.31,-522.36 -842.85,-622.69 -58.24,-14.93 -1547.63,-8.53 -1744.39,-9.07 -48.91,-0.13 -89.5,5.05 -113.31,10.95 -46.13,32.24 -29.74,355.92 -29.73,423.53l0.62 2302.94c-0.01,117.16 -19.55,861.24 20.03,898.89 32.19,30.62 371.09,15.98 441.99,15.05 142.43,-1.89 112.51,-5.32 112.55,-346.67l-7.96 -1837.27c-0.38,-102.73 4.34,-601.58 -5.07,-679.17l-3.17 -176.77c6.97,-63.68 38.08,-54.54 123.71,-54.35l1103.52 13.65c203.13,2.5 370.11,103.52 451.39,236.18 242.01,395.03 -14.01,977.65 -447.5,1110.48 -75.91,23.26 -214.31,45.71 -297.56,67.4 -90.84,23.68 -171.2,28.34 -265.8,60.04z"/>
    <path class="fil0" d="M14070.55 10989.45l549.15 2.44c46.01,-61.32 62.22,-110 93.4,-179.3l17 -34.08c0.84,-1.9 1.62,-4.24 2.46,-6.13l1049.69 -2200.44c36.46,-92.13 46.61,-33.32 72.54,16.08 363.89,705.81 748.63,1551.11 1058.49,2275.45 18.94,40.44 27.62,106.22 72.42,123.99 46.1,18.29 281.75,4.42 343.32,5.84l212.73 9.77c0.33,-54.02 -63.91,-200.63 -91.18,-252.65l-1572.93 -3321.56c-29.17,-61.62 -52.41,-115.81 -70.33,-125.37 -28.93,-15.44 -37.22,2.6 -49.87,24.13 -13.31,22.66 -15.96,37.24 -26.35,58.41l-1645.26 3528.1c-14.62,31.71 -18.68,31.7 -15.28,75.32z"/>
    <path class="fil0" d="M32416.06 10989.45l549.15 2.44c46.01,-61.32 62.22,-110 93.4,-179.3l17 -34.08c0.84,-1.9 1.62,-4.24 2.46,-6.13l1049.69 -2200.44c36.46,-92.13 46.61,-33.32 72.54,16.08 363.89,705.81 748.63,1551.11 1058.49,2275.45 18.94,40.44 27.62,106.22 72.42,123.99 46.1,18.29 281.75,4.42 343.32,5.84l212.73 9.77c0.33,-54.02 -63.91,-200.63 -91.18,-252.65l-1572.93 -3321.56c-29.17,-61.62 -52.41,-115.81 -70.33,-125.37 -28.93,-15.44 -37.22,2.6 -49.87,24.13 -13.31,22.66 -15.96,37.24 -26.35,58.41l-1645.26 3528.1c-14.62,31.71 -18.68,31.7 -15.28,75.32z"/>
    <path class="fil1" d="M5549.11 10931.07c364.83,-129.33 559.43,-327.81 723.33,-677.82 84.64,-191.4 80.76,-419.23 44.38,-621.03 -36.98,-202.95 -163.14,-402.59 -335.48,-518.47 -69.34,-46.25 -30.72,-75.62 6.58,-134.17 41.25,-64.73 125.21,-220.23 144.88,-293.85l3.18 -11.91c96.87,-383.07 -29.61,-811.81 -342.8,-1057.86 -167.5,-129.48 -343.41,-182.54 -549.34,-217.76 -20.03,-3.43 -39.09,-6 -59.28,-8.13l-38.77 -1.39c-197.53,-3.74 -1656.66,-7.51 -1763.09,2.21 -4.74,1160.52 -8.34,2320.92 -6.59,3481.45 -0.23,19.49 -1.84,40.93 -1.66,59.9l4.78 38.01c5.16,17.33 11.33,16.94 23.83,19.72l1864.03 -11.24c104.66,-0.62 181.59,-12.08 282.02,-47.66zm-285.38 -477.87c-168.74,12.21 -958.87,4.37 -1125.8,4.31 -169.38,-0.06 -220.67,22.58 -226.23,-42.09 -0.92,-10.71 -0.11,-30.81 -0.03,-42.39 0.19,-25.48 0.11,-50.95 0.11,-76.43 0.13,-370.87 -10.83,-2352.81 6.01,-2369.26 368.63,-6.12 736.2,-14.28 1104.89,-12.73 181.27,0.77 397.4,16.38 508.88,180.49 105.42,195.75 98.79,413.5 44.6,623.69 -23.73,92.03 -102.05,263 -175.95,320.24 -11.54,8.94 -18.33,12.3 -31.65,17.7 -0.24,-49.52 17.13,-130.23 -32.89,-156.19l-9.3 -4.18c-69.54,-25.24 -106.33,75.19 -227.69,168.74 -45.72,35.24 -48.44,45.44 -140.22,56.97 -69.04,8.68 -129.65,-1.04 -191.12,-11.11l-596.63 -4.98 0.26 370.22 1262.36 2.2c116.98,0.77 160.98,5.06 245.54,92.77 95.72,99.28 103.64,351.87 69.14,471.27 -29.93,98.23 -81.96,168.12 -146.57,246.1 -69.49,83.88 -229.22,156.8 -337.71,164.66z"/>
    <path class="fil2" d="M20423.8 7773.53c-1.4,577.45 -6.77,1218.59 1.97,1786.47 1.6,104.07 -12.44,157.67 46.83,242.71 66.82,95.85 470.67,798.5 473.59,800.42 20.51,-45.2 7.67,-600.65 7.56,-755.27l0.41 -2057.4c-1.02,-301.65 23.87,-401.58 -89.05,-399.75l-395.86 6.44c-63.39,1.02 -44.97,84.8 -45.45,376.38z"/>
    <path class="fil1" d="M18408.36 10995.49c0.91,-17.42 1.72,-34.98 2.44,-52.63 11.08,-271.8 1.21,-569.74 0.63,-841l-0.65 -1118.14c-3.13,-195.77 -338.47,-869.48 -452.48,-1009.86 -29.52,-36.33 -19.35,-48.63 -67.08,-45.22 -15.75,292.06 -10.46,602.97 -10.8,903.22 -0.69,597.02 -20.97,1233.49 -17.25,1828.8 0.47,76.19 1.49,152.46 -0.2,228.63 -1.97,88.84 -6.24,122.14 63.7,122.55l412.64 2.45c27.83,0.16 52.23,-7.53 69.05,-18.8z"/>
    <path class="fil2" d="M18660.5 13092.81c69.21,-31.09 367.17,-3 435.65,25.54 116.96,48.73 161.91,148.85 160.5,311.06 -1.42,163.46 -60.16,254.43 -176.16,303.88 -99.05,42.22 -309.89,57.26 -428.58,42.58 0,-104.49 -11.74,-627.23 8.59,-683.06zm851.3 512.55c37.46,-80.42 49.63,-198.74 26.02,-293.43 -69.41,-278.49 -407.64,-333.12 -676.33,-333.52 -224.1,-0.33 -448.24,0.04 -672.75,0.04l2.57 85.4c221.48,16.02 223.59,68.46 223.72,289.22l-0.04 1016c-1.51,215.87 -30.14,246.55 -245.88,259.91l-2.68 87.18 796.78 0 0 -86.83c-378.35,-6.68 -311.3,-68.58 -311.3,-733.86 165.94,-16.63 214.72,46.52 280.12,132.11 59.46,77.81 118.87,148.76 178.37,227.95 116.55,155.15 235.74,302.78 355.04,460.33l439.34 0.29 -3.79 -84.61c-105.89,-35.43 -167.47,-17.23 -272.7,-123.37 -36.88,-37.19 -496.61,-581.65 -526.79,-635.69 214.56,-45.48 335.82,-107.25 410.3,-267.12z"/>
    <path class="fil2" d="M26614.03 13778.53l-0.33 -646.65c4.8,-65.08 47.31,-47.98 113.3,-47.7 134.57,0.56 311.23,-12.44 406.84,82.16 104.66,103.58 118.67,377.71 16.87,492.13 -113.7,127.82 -339.35,120.06 -536.68,120.06zm582.48 61.02c381.31,-124.55 393.79,-551.44 174.59,-724.3 -138.96,-109.58 -331.05,-136.31 -542.46,-136.84 -225.74,-0.55 -451.55,0.04 -677.62,0.04l2 85.03c231.71,19.85 224.3,74.09 224.2,306.52 -0.1,266.05 11.31,836.05 -1.79,1064.07 -10.71,186.16 -86.97,177.61 -215.84,192.65 -47.39,5.52 -30.91,32.79 -30.91,89.27l796.69 0.17 0 -86.91c-378.56,-6.12 -310.53,-65.8 -311.34,-736.24 181.53,2.92 200.05,34.58 282.22,137.56l531.8 685.76 438.47 -3.64c0,-116.06 7.85,-71.24 -100.45,-104.22 -118.97,-36.22 -159.37,-71.28 -238.16,-168.05l-372.1 -449.22c-23.45,-28.46 -74.31,-84.12 -90.82,-113.2 30.51,-19.84 92.08,-25.57 131.52,-38.45z"/>
    <path class="fil2" d="M23176.72 13858.94c244.24,0 459.77,-19.15 611,121.96 123.67,115.38 161.7,416.45 14.68,545.23 -119.75,104.9 -446.16,140.4 -567.72,16.28 -70.63,-72.11 -57.97,-194.73 -57.96,-308.81 0,-124.88 0,-249.77 0,-374.66zm0 -709.07c0,-61.81 0.84,-65.65 62.04,-65.65 265.68,0 511.39,-16.33 509.09,336.81 -2.3,354.41 -301.86,323.63 -571.13,323.63l0 -594.79zm832.43 372.57c29.44,-79.48 30.6,-184.23 0.55,-263.1 -94.25,-247.38 -428.45,-280.94 -669.34,-280.92 -205.85,0.01 -421.21,-6.09 -626.18,0.81l1.98 83.64c221.95,25.63 223.58,56.48 223.73,290.19l-0.24 1033.27c-1.32,79.02 -10.45,163.19 -59.09,200.5 -54.05,41.46 -135.27,27.82 -210.02,44.65l-1.17 84.68c251.89,0 503.77,-0.12 755.66,0.02 230.32,0.12 471.35,0.61 616.86,-128.11 324.17,-286.75 130.24,-719.57 -318.41,-779.47 -20.46,-2.73 -60.52,-4.26 -77.62,-15.27 73.2,-45.43 290.49,-74.34 363.29,-270.89z"/>
    <path class="fil2" d="M20788.83 13085.41c442.94,-57.05 690.03,281.75 720.72,683.06 34.56,451.8 -157.01,792.3 -561.72,840.61 -447.33,53.4 -705.36,-267.13 -723.2,-679.9 -19.2,-444.17 161.01,-791.85 564.2,-843.77zm-858.09 809.52c38.33,808.88 1081.71,1114.26 1627.82,563.48 542.97,-547.61 146.39,-1541.87 -741.58,-1501.25 -495.11,22.65 -910.89,417.49 -886.24,937.77z"/>
    <path class="fil2" d="M12398.38 14075.11c97.31,2.66 176.14,20.58 206.23,99.29 31.09,81.34 22.83,185.46 -16.19,254.86 -134.78,239.72 -929.45,392.18 -1007.21,-424.3 -37.12,-389.82 67.26,-750.43 330.39,-878.91 227.67,-111.16 711.43,-71 727.82,370.59l108.77 0.23 28.86 -518.42 -81.06 0c-8.39,39.96 -24.56,106.17 -49.05,135.32 -148.88,-76.56 -267.79,-152.9 -482.21,-157.95 -548.31,-12.9 -933.24,402.77 -888.57,1015.15 28.1,385.33 233.79,630.36 541.86,727.67 175.06,55.3 389.04,52.09 562.59,-3.21 188.62,-60.11 224.55,-157.16 470.76,-167.17 11.91,-98.27 -5.33,-214.5 5.41,-313.61 12.59,-116.23 65.36,-136.03 182.37,-139.5l-0.09 -87.04 -640.68 0 0 87z"/>
    <path class="fil2" d="M15093.82 14585.5c65.05,32.75 85.1,70.58 195.47,113.07 83.44,32.12 173.58,41.02 270.2,38.06 193.12,-5.94 334.95,-63.67 440.05,-164.4 120.29,-115.29 176.54,-285.75 134.82,-456.31 -70.09,-286.46 -456.36,-380.79 -693.53,-517.2 -568.5,-326.98 114.71,-782.39 398.26,-364.41 46.95,69.21 58.75,115.38 94.6,201.44l81.74 -1.1 -24.19 -447.65c-84.49,-0.29 -66.35,37.33 -110.02,95.85 -35.81,-13.59 -54.88,-37 -94.76,-58.41 -263.84,-141.64 -600.99,-62.6 -725.22,203.2 -75.88,162.36 -55.02,356.76 45.4,476.56 186.04,221.92 604.47,281.52 743.65,467.17 44.54,59.41 63.66,159.15 37.53,246.6 -72.83,243.7 -427.24,246.29 -628.06,132.37 -159.48,-90.47 -194.07,-224.81 -234.41,-365.41l-80.83 0.22 32.94 504.14c83.55,3.06 45.58,-11.72 116.36,-103.79z"/>
    <path class="fil2" d="M24831.2 13972.44c33.14,-105.66 86.55,-224.1 128.16,-329.71 27.86,-70.7 102.2,-282.55 137.26,-326.33l244.5 656.9 -509.92 -0.86zm-11.21 659.55c-179.14,-21.13 -208.46,-45.19 -151.77,-239.02 16.3,-55.72 36.33,-108.93 57.48,-162.54 12.02,-30.45 37.15,-136.81 70.93,-145.06l593.08 1.19c25.38,103.49 87.16,226.44 121.08,330.23 62.07,189.95 -15.1,203.93 -188.15,210.25l-1.73 89.18 736.07 -1.75 -3.88 -86.33c-116.45,-10.66 -161.09,-30.61 -209.27,-103.85 -40.37,-61.39 -72.61,-138.91 -103.28,-210.27l-536.86 -1335.59 -101.89 1.12 -353.87 892.18c-59.02,148.02 -117.61,292.67 -176.87,440.99 -27.42,68.61 -58.67,163.82 -96.55,216.95 -64.93,91.07 -137.03,80.39 -202.24,101.83l-0.98 84.75 548.7 -2.09 0 -82.17z"/>
    <path class="fil2" d="M13880.1 13310.56l246.71 662.53 -512.08 -0.7 265.37 -661.83zm-274.42 1318.89c-339.79,-0.31 -104.16,-290.17 -39.84,-544.03l596.64 0c28.98,24.35 113.61,268.97 131.6,321.39 73.28,213.44 -17.68,198.44 -186.5,222.16l-1.06 84.7c102.51,8.42 595.07,2.49 735.63,2.49l-5.2 -89.08c-114.43,-4.33 -163.26,-33.42 -208.63,-105.91 -87.43,-139.69 -217.8,-492.7 -283.86,-655.93 -61.07,-150.91 -118.74,-294.19 -180.27,-446.06 -30.71,-75.78 -58.56,-146.77 -89.63,-223.78 -100.33,-248.69 -58.71,-216.95 -186.98,-216.95 -22.67,80 -494.84,1245.2 -548.66,1379.85 -57.76,144.52 -79.24,230.65 -221.53,261 -79.54,16.97 -60.45,2.01 -60.55,94.24l548.84 2.62 0 -86.71z"/>
    <path class="fil3" d="M34831.49 10457.46c-0.12,-56.28 -4.79,-121.77 -33.93,-162.58 -101.24,-141.78 -241.58,-127.2 -450.51,-127.22 -156.86,-0.01 -413.88,-2.88 -559.68,6.44 -118.79,7.25 -132.07,28.22 -157.36,79.7l-293.99 598.36c-116.5,180.85 132.91,118.88 234.06,110.27 346.76,-29.58 945.52,-94.25 1209.07,-334.88 31.71,-28.94 52.45,-112.82 52.34,-170.09z"/>
    <path class="fil2" d="M16302.42 13406c104.37,12.91 76.58,0.86 88.99,-85.84 24.27,-169.52 127.22,-232.4 304.82,-241.08 75.61,-3.7 288.69,-20.54 320.26,36.1 17.69,31.75 8.34,1002.79 8.34,1084.56 0,100.73 13.43,250.05 -31.44,333.3 -49.89,92.58 -149.05,72.38 -262.23,100.46l0 82.48 853.45 0.18 0 -87c-156.06,-5.58 -261.77,-24.36 -284.42,-171.75 -19.42,-126.42 -9.26,-1323.74 1.3,-1341.16 30.76,-50.76 164.34,-39.17 213.79,-39.89 197.09,-2.88 357.95,15.26 404.27,228.32 25.03,115.11 -18.49,103.41 106.8,103.38l-22.08 -426.95c-110.38,-13.65 -1653.81,-11.03 -1704.11,2.53l2.26 422.36z"/>
    <path class="fil4" d="M23176.72 14233.6c-0.01,114.08 -12.67,236.7 57.96,308.81 121.56,124.12 447.97,88.62 567.72,-16.28 147.02,-128.78 108.99,-429.85 -14.68,-545.23 -151.23,-141.11 -366.76,-121.96 -611,-121.96"/>
    <path class="fil4" d="M18648.88 13479c0.85,129.38 3.03,251.89 3.03,296.87 118.69,14.68 329.53,-0.36 428.58,-42.58 116,-49.45 174.74,-140.42 176.16,-303.88 1.41,-162.21 -43.54,-262.33 -160.5,-311.06 -68.48,-28.54 -366.44,-56.63 -435.65,-25.54"/>
    <path class="fil5" d="M26614.03 13778.53c197.33,0 422.98,7.76 536.68,-120.06 101.8,-114.42 87.79,-388.55 -16.87,-492.13 -95.61,-94.6 -272.27,-81.6 -406.84,-82.16 -65.99,-0.28 -108.5,-17.38 -113.3,47.7l0.33 646.65z"/>
    <path class="fil4" d="M23176.72 13744.66c269.27,0 568.83,30.78 571.13,-323.63 2.3,-353.14 -243.41,-336.81 -509.09,-336.81 -61.2,0 -62.04,3.84 -62.04,65.65"/>
    <path class="fil4" d="M25341.12 13973.3l-244.5 -656.9c-35.06,43.78 -109.4,255.63 -137.26,326.33 -41.61,105.61 -95.02,224.05 -128.16,329.71"/>
    <polyline class="fil4" points="14126.81,13973.09 13880.1,13310.56 13614.73,13972.39 "/>
    <path class="fil1" d="M8447.14 7329.33c1003.62,0 1817.2,834.26 1817.2,1863.38 0,1029.12 -813.58,1863.38 -1817.2,1863.38 -1003.61,0 -1817.2,-834.26 -1817.2,-1863.38 0,-1029.12 813.59,-1863.38 1817.2,-1863.38zm0 537.3c714.23,0 1293.22,593.7 1293.22,1326.08 0,732.38 -578.99,1326.08 -1293.22,1326.08 -714.22,0 -1293.21,-593.7 -1293.21,-1326.08 0,-732.38 578.99,-1326.08 1293.21,-1326.08z"/>
    <path class="fil1" d="M12412.09 7329.33c659.21,0 1238.26,343.89 1568.38,862.4 23.96,37.68 29.22,29.85 -3.4,55.28l-362.61 282.62c-47.31,36.87 -33.84,38.61 -59.7,-5.76 -229.56,-393.15 -655.34,-657.24 -1142.67,-657.24 -730.69,0 -1323.04,593.7 -1323.04,1326.08 0,732.38 592.35,1326.08 1323.04,1326.08 470.2,0 883.08,-245.88 1117.72,-616.3 33.95,-53.64 19.08,-53.61 66.78,-8.27l337.37 320.69c23.87,22.69 23.2,15.06 4.09,42.5 -335.94,482.8 -894.15,798.68 -1525.96,798.68 -1026.76,0 -1859.12,-834.26 -1859.12,-1863.38 0,-1029.12 832.36,-1863.38 1859.12,-1863.38z"/>
    <path class="fil1" d="M26719.79 7329.33c659.21,0 1238.26,343.89 1568.38,862.4 23.96,37.68 29.22,29.85 -3.4,55.28l-362.61 282.62c-47.31,36.87 -33.84,38.61 -59.7,-5.76 -229.56,-393.15 -655.34,-657.24 -1142.67,-657.24 -730.69,0 -1323.04,593.7 -1323.04,1326.08 0,732.38 592.35,1326.08 1323.04,1326.08 405.78,0 768.84,-183.16 1011.52,-471.4 47.08,-56.01 44.41,-70.8 42.77,-119.31l-3.3 -440.01c-0.21,-48.21 1.31,-55.67 -36.22,-57.36 -106.44,-4.79 -429.11,-20.97 -563.42,-45.18 -129.61,-23.37 -445.95,-321.01 -549.77,-426.87 -9.95,-10.16 -10.7,-41.26 -3.87,-54.75 3.39,-6.7 14.4,-4.83 43.95,-4.81l1537.48 0.6c145.35,-0.86 149.23,-0.81 148.02,96.85l-13.55 1096.6c-8.12,121.6 17.45,233.08 -71.13,305.81 -516.87,341.3 -870.8,657.13 -1542.48,657.13 -1026.76,0 -1859.12,-834.26 -1859.12,-1863.38 0,-1029.12 832.36,-1863.38 1859.12,-1863.38z"/>
    <path class="fil1" d="M24424.8 7423.28l-1.3 453.37c-0.09,33.13 -49.51,55.22 -93.16,55.22l-2588.84 0c-30.36,0 -55.22,-24.84 -55.22,-55.22l0 -457.17c0,-28.68 24.79,-50.32 55.22,-50.35l2590.65 -2.42c43.7,-0.04 92.74,23.32 92.65,56.57z"/>
    <path class="fil1" d="M24424.8 10484.68l-1.3 453.37c-0.09,33.13 -49.51,55.22 -93.16,55.22l-2588.84 0c-30.36,0 -55.22,-24.84 -55.22,-55.22l0 -457.17c0,-28.68 24.79,-50.32 55.22,-50.35l2590.65 -2.42c43.7,-0.04 92.74,23.32 92.65,56.57z"/>
    <path class="fil1 str0" d="M3376.77 11912.3l32476.05 0c9.07,0 16.48,7.41 16.48,16.47l0 54.22c0,9.06 -7.41,16.47 -16.48,16.47l-32476.05 0c-9.07,0 -16.48,-7.41 -16.48,-16.47l0 -54.22c0,-9.06 7.41,-16.47 16.48,-16.47z"/>
    <g>
     <g style="clip-path:url(#id0)">
      <polygon class="fil6" points="20913.04,11126.51 20894.71,11126.19 20962.85,7281.72 20981.18,7282.04 "/>
      <polygon id="_1" class="fil6" points="20900.89,11126.29 20882.34,11125.97 20950.49,7281.5 20969.03,7281.83 "/>
      <polygon id="_2" class="fil6" points="20888.52,11126.08 20869.98,11125.75 20938.12,7281.28 20956.67,7281.61 "/>
      <polygon id="_3" class="fil6" points="20876.16,11125.86 20857.61,11125.53 20925.76,7281.06 20944.3,7281.39 "/>
      <polygon id="_4" class="fil7" points="20863.8,11125.64 20845.25,11125.31 20913.39,7280.84 20931.94,7281.17 "/>
      <polygon id="_5" class="fil7" points="20851.43,11125.42 20832.89,11125.09 20901.03,7280.62 20919.58,7280.95 "/>
      <polygon id="_6" class="fil7" points="20839.07,11125.2 20820.52,11124.87 20888.67,7280.4 20907.21,7280.73 "/>
      <polygon id="_7" class="fil8" points="20826.7,11124.98 20808.16,11124.65 20876.3,7280.19 20894.85,7280.51 "/>
      <polygon id="_8" class="fil9" points="20814.34,11124.76 20795.79,11124.43 20863.94,7279.97 20882.48,7280.3 "/>
      <polygon id="_9" class="fil9" points="20801.98,11124.54 20783.43,11124.21 20851.57,7279.75 20870.12,7280.08 "/>
      <polygon id="_10" class="fil9" points="20789.61,11124.32 20771.07,11123.99 20839.21,7279.53 20857.76,7279.86 "/>
      <polygon id="_11" class="fil10" points="20777.25,11124.1 20758.7,11123.77 20826.85,7279.31 20845.39,7279.64 "/>
      <polygon id="_12" class="fil11" points="20764.88,11123.88 20746.34,11123.56 20814.48,7279.09 20833.03,7279.42 "/>
      <polygon id="_13" class="fil11" points="20752.52,11123.66 20733.97,11123.34 20802.12,7278.87 20820.66,7279.2 "/>
      <polygon id="_14" class="fil12" points="20740.16,11123.45 20721.61,11123.12 20789.76,7278.65 20808.3,7278.98 "/>
      <polygon id="_15" class="fil12" points="20727.79,11123.23 20709.25,11122.9 20777.39,7278.43 20795.94,7278.76 "/>
      <polygon id="_16" class="fil13" points="20715.43,11123.01 20696.88,11122.68 20765.03,7278.21 20783.57,7278.54 "/>
      <polygon id="_17" class="fil13" points="20703.06,11122.79 20684.52,11122.46 20752.66,7277.99 20771.21,7278.32 "/>
      <polygon id="_18" class="fil14" points="20690.7,11122.57 20672.15,11122.24 20740.3,7277.77 20758.85,7278.1 "/>
      <polygon id="_19" class="fil15" points="20678.34,11122.35 20659.79,11122.02 20727.94,7277.56 20746.48,7277.88 "/>
      <polygon id="_20" class="fil16" points="20665.97,11122.13 20647.43,11121.8 20715.57,7277.34 20734.12,7277.67 "/>
      <polygon id="_21" class="fil16" points="20653.61,11121.91 20635.06,11121.58 20703.21,7277.12 20721.75,7277.45 "/>
      <polygon id="_22" class="fil17" points="20641.24,11121.69 20622.7,11121.36 20690.84,7276.9 20709.39,7277.23 "/>
      <polygon id="_23" class="fil18" points="20628.88,11121.47 20610.33,11121.14 20678.48,7276.68 20697.03,7277.01 "/>
      <polygon id="_24" class="fil19" points="20616.52,11121.25 20597.97,11120.93 20666.12,7276.46 20684.66,7276.79 "/>
      <polygon id="_25" class="fil20" points="20604.15,11121.03 20585.61,11120.71 20653.75,7276.24 20672.3,7276.57 "/>
      <polygon id="_26" class="fil20" points="20591.79,11120.82 20573.24,11120.49 20641.39,7276.02 20659.93,7276.35 "/>
      <polygon id="_27" class="fil21" points="20579.42,11120.6 20560.88,11120.27 20629.02,7275.8 20647.57,7276.13 "/>
      <polygon id="_28" class="fil22" points="20567.06,11120.38 20548.51,11120.05 20616.66,7275.58 20635.21,7275.91 "/>
      <polygon id="_29" class="fil23" points="20554.7,11120.16 20536.15,11119.83 20604.3,7275.36 20622.84,7275.69 "/>
      <polygon id="_30" class="fil23" points="20542.33,11119.94 20523.79,11119.61 20591.93,7275.14 20610.48,7275.47 "/>
      <polygon id="_31" class="fil24" points="20529.97,11119.72 20511.42,11119.39 20579.57,7274.93 20598.11,7275.25 "/>
      <polygon id="_32" class="fil25" points="20517.6,11119.5 20499.06,11119.17 20567.2,7274.71 20585.75,7275.04 "/>
      <polygon id="_33" class="fil25" points="20505.24,11119.28 20486.69,11118.95 20554.84,7274.49 20573.39,7274.82 "/>
      <polygon id="_34" class="fil25" points="20492.88,11119.06 20474.33,11118.73 20542.48,7274.27 20561.02,7274.6 "/>
      <polygon id="_35" class="fil26" points="20480.51,11118.84 20461.97,11118.51 20530.11,7274.05 20548.66,7274.38 "/>
      <polygon id="_36" class="fil27" points="20468.15,11118.62 20449.6,11118.3 20517.75,7273.83 20536.29,7274.16 "/>
      <polygon id="_37" class="fil27" points="20455.78,11118.4 20437.24,11118.08 20505.38,7273.61 20523.93,7273.94 "/>
      <polygon id="_38" class="fil27" points="20443.42,11118.19 20424.87,11117.86 20493.02,7273.39 20511.57,7273.72 "/>
      <polygon id="_39" class="fil28" points="20431.06,11117.97 20412.51,11117.64 20480.66,7273.17 20499.2,7273.5 "/>
      <polygon id="_40" class="fil28" points="20418.69,11117.75 20400.15,11117.42 20468.29,7272.95 20486.84,7273.28 "/>
      <polygon id="_41" class="fil28" points="20406.33,11117.53 20387.78,11117.2 20455.93,7272.73 20474.47,7273.06 "/>
      <polygon id="_42" class="fil29" points="20393.96,11117.31 20375.42,11116.98 20443.56,7272.51 20462.11,7272.84 "/>
      <polygon id="_43" class="fil30" points="20381.6,11117.09 20363.05,11116.76 20431.2,7272.3 20449.75,7272.62 "/>
      <polygon id="_44" class="fil30" points="20369.24,11116.87 20350.69,11116.54 20418.84,7272.08 20437.38,7272.41 "/>
      <polygon id="_45" class="fil30" points="20356.87,11116.65 20338.33,11116.32 20406.47,7271.86 20425.02,7272.19 "/>
      <polygon id="_46" class="fil31" points="20344.51,11116.43 20325.96,11116.1 20394.11,7271.64 20412.65,7271.97 "/>
      <polygon id="_47" class="fil32" points="20332.14,11116.21 20313.6,11115.88 20381.74,7271.42 20400.29,7271.75 "/>
      <polygon id="_48" class="fil32" points="20319.78,11115.99 20301.23,11115.67 20369.38,7271.2 20387.93,7271.53 "/>
      <polygon id="_49" class="fil32" points="20307.42,11115.78 20288.87,11115.45 20357.02,7270.98 20375.56,7271.31 "/>
      <polygon id="_50" class="fil33" points="20295.05,11115.56 20276.51,11115.23 20344.65,7270.76 20363.2,7271.09 "/>
      <polygon id="_51" class="fil34" points="20282.69,11115.34 20264.14,11115.01 20332.29,7270.54 20350.83,7270.87 "/>
      <polygon id="_52" class="fil34" points="20270.32,11115.12 20251.78,11114.79 20319.92,7270.32 20338.47,7270.65 "/>
      <polygon id="_53" class="fil35" points="20257.96,11114.9 20239.41,11114.57 20307.56,7270.1 20326.11,7270.43 "/>
      <polygon id="_54" class="fil36" points="20245.6,11114.68 20227.05,11114.35 20295.2,7269.89 20313.74,7270.21 "/>
      <polygon id="_55" class="fil37" points="20233.23,11114.46 20214.69,11114.13 20282.83,7269.67 20301.38,7269.99 "/>
      <polygon id="_56" class="fil37" points="20220.87,11114.24 20202.32,11113.91 20270.47,7269.45 20289.01,7269.78 "/>
      <polygon id="_57" class="fil38" points="20208.5,11114.02 20189.96,11113.69 20258.1,7269.23 20276.65,7269.56 "/>
      <polygon id="_58" class="fil39" points="20196.14,11113.8 20177.59,11113.47 20245.74,7269.01 20264.29,7269.34 "/>
      <polygon id="_59" class="fil40" points="20183.78,11113.58 20165.23,11113.25 20233.38,7268.79 20251.92,7269.12 "/>
      <polygon id="_60" class="fil41" points="20171.41,11113.36 20152.87,11113.04 20221.01,7268.57 20239.56,7268.9 "/>
      <polygon id="_61" class="fil42" points="20159.05,11113.15 20140.5,11112.82 20208.65,7268.35 20227.19,7268.68 "/>
      <polygon id="_62" class="fil42" points="20146.68,11112.93 20128.14,11112.6 20196.28,7268.13 20214.83,7268.46 "/>
      <polygon id="_63" class="fil43" points="20134.32,11112.71 20115.78,11112.38 20183.92,7267.91 20202.47,7268.24 "/>
      <polygon id="_64" class="fil44" points="20121.96,11112.49 20103.41,11112.16 20171.56,7267.69 20190.1,7268.02 "/>
      <polygon id="_65" class="fil45" points="20109.59,11112.27 20091.05,11111.94 20159.19,7267.47 20177.74,7267.8 "/>
      <polygon id="_66" class="fil45" points="20097.23,11112.05 20078.68,11111.72 20146.83,7267.26 20165.37,7267.58 "/>
      <polygon id="_67" class="fil46" points="20084.87,11111.83 20066.32,11111.5 20134.46,7267.04 20153.01,7267.36 "/>
      <polygon id="_68" class="fil47" points="20072.5,11111.61 20053.96,11111.28 20122.1,7266.82 20140.65,7267.15 "/>
      <polygon id="_69" class="fil48" points="20060.14,11111.39 20041.59,11111.06 20109.74,7266.6 20128.28,7266.93 "/>
      <polygon id="_70" class="fil49" points="20047.77,11111.17 20029.23,11110.84 20097.37,7266.38 20115.92,7266.71 "/>
      <polygon id="_71" class="fil50" points="20035.41,11110.95 20016.86,11110.62 20085.01,7266.16 20103.55,7266.49 "/>
      <polygon id="_72" class="fil50" points="20023.05,11110.73 20004.5,11110.41 20072.64,7265.94 20091.19,7266.27 "/>
      <polygon id="_73" class="fil51" points="20010.68,11110.52 19992.14,11110.19 20060.28,7265.72 20078.83,7266.05 "/>
      <polygon id="_74" class="fil52" points="19998.32,11110.3 19979.77,11109.97 20047.92,7265.5 20066.46,7265.83 "/>
      <polygon id="_75" class="fil53" points="19985.95,11110.08 19967.41,11109.75 20035.55,7265.28 20054.1,7265.61 "/>
      <polygon id="_76" class="fil53" points="19973.59,11109.86 19955.04,11109.53 20023.19,7265.06 20041.73,7265.39 "/>
      <polygon id="_77" class="fil54" points="19961.23,11109.64 19942.68,11109.31 20010.82,7264.84 20029.37,7265.17 "/>
      <polygon id="_78" class="fil55" points="19948.86,11109.42 19930.32,11109.09 19998.46,7264.63 20017.01,7264.95 "/>
      <polygon id="_79" class="fil55" points="19936.5,11109.2 19917.95,11108.87 19986.1,7264.41 20004.64,7264.73 "/>
      <polygon id="_80" class="fil56" points="19924.13,11108.98 19905.59,11108.65 19973.73,7264.19 19992.28,7264.52 "/>
      <polygon id="_81" class="fil56" points="19911.77,11108.76 19893.22,11108.43 19961.37,7263.97 19979.91,7264.3 "/>
      <polygon id="_82" class="fil57" points="19899.41,11108.54 19880.86,11108.21 19949,7263.75 19967.55,7264.08 "/>
      <polygon id="_83" class="fil57" points="19887.04,11108.32 19868.5,11107.99 19936.64,7263.53 19955.19,7263.86 "/>
      <polygon id="_84" class="fil58" points="19874.68,11108.1 19856.13,11107.78 19924.28,7263.31 19942.82,7263.64 "/>
      <polygon id="_85" class="fil59" points="19862.31,11107.89 19843.77,11107.56 19911.91,7263.09 19930.46,7263.42 "/>
      <polygon id="_86" class="fil60" points="19849.95,11107.67 19831.4,11107.34 19899.55,7262.87 19918.09,7263.2 "/>
      <polygon id="_87" class="fil60" points="19837.59,11107.45 19819.04,11107.12 19887.18,7262.65 19905.73,7262.98 "/>
      <polygon id="_88" class="fil61" points="19825.22,11107.23 19806.68,11106.9 19874.82,7262.43 19893.37,7262.76 "/>
      <polygon id="_89" class="fil62" points="19812.86,11107.01 19794.31,11106.68 19862.46,7262.21 19881,7262.54 "/>
      <polygon id="_90" class="fil63" points="19800.49,11106.79 19781.95,11106.46 19850.09,7262 19868.64,7262.32 "/>
      <polygon id="_91" class="fil63" points="19788.13,11106.57 19769.58,11106.24 19837.73,7261.78 19856.27,7262.1 "/>
      <polygon id="_92" class="fil64" points="19775.77,11106.35 19757.22,11106.02 19825.36,7261.56 19843.91,7261.89 "/>
      <polygon id="_93" class="fil64" points="19763.4,11106.13 19744.86,11105.8 19813,7261.34 19831.55,7261.67 "/>
      <polygon id="_94" class="fil65" points="19751.04,11105.91 19732.49,11105.58 19800.64,7261.12 19819.18,7261.45 "/>
      <polygon id="_95" class="fil65" points="19738.67,11105.69 19720.13,11105.37 19788.27,7260.9 19806.82,7261.23 "/>
      <polygon id="_96" class="fil66" points="19726.31,11105.47 19707.76,11105.15 19775.91,7260.68 19794.45,7261.01 "/>
      <polygon id="_97" class="fil66" points="19713.95,11105.26 19695.4,11104.93 19763.54,7260.46 19782.09,7260.79 "/>
      <polygon id="_98" class="fil67" points="19701.58,11105.04 19683.04,11104.71 19751.18,7260.24 19769.73,7260.57 "/>
      <polygon id="_99" class="fil68" points="19689.22,11104.82 19670.67,11104.49 19738.82,7260.02 19757.36,7260.35 "/>
      <polygon id="_100" class="fil69" points="19676.85,11104.6 19658.31,11104.27 19726.45,7259.8 19745,7260.13 "/>
      <polygon id="_101" class="fil70" points="19664.49,11104.38 19645.94,11104.05 19714.09,7259.58 19732.63,7259.91 "/>
      <polygon id="_102" class="fil71" points="19652.13,11104.16 19633.58,11103.83 19701.72,7259.37 19720.27,7259.69 "/>
      <polygon id="_103" class="fil72" points="19639.76,11103.94 19621.22,11103.61 19689.36,7259.15 19707.91,7259.48 "/>
      <polygon id="_104" class="fil73" points="19627.4,11103.72 19608.85,11103.39 19677,7258.93 19695.54,7259.26 "/>
      <polygon id="_105" class="fil74" points="19615.03,11103.5 19596.49,11103.17 19664.63,7258.71 19683.18,7259.04 "/>
      <polygon id="_106" class="fil75" points="19602.67,11103.28 19584.12,11102.95 19652.27,7258.49 19670.81,7258.82 "/>
      <polygon id="_107" class="fil76" points="19590.31,11103.06 19571.76,11102.74 19639.9,7258.27 19658.45,7258.6 "/>
      <polygon id="_108" class="fil77" points="19577.94,11102.84 19559.4,11102.52 19627.54,7258.05 19646.09,7258.38 "/>
      <polygon id="_109" class="fil78" points="19565.58,11102.63 19547.03,11102.3 19615.18,7257.83 19633.72,7258.16 "/>
      <polygon id="_110" class="fil79" points="19553.21,11102.41 19534.67,11102.08 19602.81,7257.61 19621.36,7257.94 "/>
      <polygon id="_111" class="fil80" points="19540.85,11102.19 19522.3,11101.86 19590.45,7257.39 19608.99,7257.72 "/>
      <polygon id="_112" class="fil81" points="19528.49,11101.97 19509.94,11101.64 19578.08,7257.17 19596.63,7257.5 "/>
      <polygon id="_113" class="fil82" points="19516.12,11101.75 19497.58,11101.42 19565.72,7256.95 19584.27,7257.28 "/>
      <polygon id="_114" class="fil83" points="19503.76,11101.53 19485.21,11101.2 19553.36,7256.74 19571.9,7257.06 "/>
      <polygon id="_115" class="fil84" points="19491.39,11101.31 19472.85,11100.98 19540.99,7256.52 19559.54,7256.85 "/>
      <polygon id="_116" class="fil85" points="19479.03,11101.09 19460.48,11100.76 19528.63,7256.3 19547.17,7256.63 "/>
      <polygon id="_117" class="fil86" points="19466.67,11100.87 19448.12,11100.54 19516.26,7256.08 19534.81,7256.41 "/>
      <polygon id="_118" class="fil87" points="19454.3,11100.65 19435.76,11100.32 19503.9,7255.86 19522.45,7256.19 "/>
      <polygon id="_119" class="fil88" points="19441.94,11100.43 19423.39,11100.11 19491.54,7255.64 19510.08,7255.97 "/>
      <polygon id="_120" class="fil89" points="19429.57,11100.21 19411.03,11099.89 19479.17,7255.42 19497.72,7255.75 "/>
      <polygon id="_121" class="fil89" points="19417.21,11100 19398.66,11099.67 19466.81,7255.2 19485.36,7255.53 "/>
      <polygon id="_122" class="fil89" points="19404.85,11099.78 19386.3,11099.45 19454.45,7254.98 19472.99,7255.31 "/>
      <polygon id="_123" class="fil89" points="19392.48,11099.56 19373.94,11099.23 19442.08,7254.76 19460.63,7255.09 "/>
      <polygon id="_124" class="fil89" points="19380.12,11099.34 19361.57,11099.01 19429.72,7254.54 19448.26,7254.87 "/>
      <polygon id="_125" class="fil89" points="19367.75,11099.12 19349.21,11098.79 19417.35,7254.32 19435.9,7254.65 "/>
      <polygon id="_126" class="fil89" points="19355.39,11098.9 19336.84,11098.57 19404.99,7254.11 19423.54,7254.43 "/>
      <polygon id="_127" class="fil89" points="19343.03,11098.68 19324.48,11098.35 19392.63,7253.89 19411.17,7254.22 "/>
      <polygon id="_128" class="fil89" points="19330.66,11098.46 19312.12,11098.13 19380.26,7253.67 19398.81,7254 "/>
      <polygon id="_129" class="fil89" points="19318.3,11098.24 19299.75,11097.91 19367.9,7253.45 19386.44,7253.78 "/>
      <polygon id="_130" class="fil89" points="19305.93,11098.02 19287.39,11097.69 19355.53,7253.23 19374.08,7253.56 "/>
      <polygon id="_131" class="fil89" points="19293.57,11097.8 19275.02,11097.48 19343.17,7253.01 19361.72,7253.34 "/>
      <polygon id="_132" class="fil89" points="19281.21,11097.58 19262.66,11097.26 19330.81,7252.79 19349.35,7253.12 "/>
      <polygon id="_133" class="fil89" points="19268.84,11097.37 19250.3,11097.04 19318.44,7252.57 19336.99,7252.9 "/>
      <polygon id="_134" class="fil89" points="19256.48,11097.15 19237.93,11096.82 19306.08,7252.35 19324.62,7252.68 "/>
      <polygon id="_135" class="fil89" points="19244.11,11096.93 19225.57,11096.6 19293.71,7252.13 19312.26,7252.46 "/>
      <polygon id="_136" class="fil89" points="19231.75,11096.71 19213.2,11096.38 19281.35,7251.91 19299.9,7252.24 "/>
      <polygon id="_137" class="fil89" points="19219.39,11096.49 19200.84,11096.16 19268.99,7251.7 19287.53,7252.02 "/>
      <polygon id="_138" class="fil89" points="19207.02,11096.27 19188.48,11095.94 19256.62,7251.48 19275.17,7251.8 "/>
      <polygon id="_139" class="fil89" points="19194.66,11096.05 19176.11,11095.72 19244.26,7251.26 19262.8,7251.59 "/>
      <polygon id="_140" class="fil89" points="19182.29,11095.83 19163.75,11095.5 19231.89,7251.04 19250.44,7251.37 "/>
      <polygon id="_141" class="fil89" points="19169.93,11095.61 19151.38,11095.28 19219.53,7250.82 19238.08,7251.15 "/>
      <polygon id="_142" class="fil89" points="19157.57,11095.39 19139.02,11095.06 19207.17,7250.6 19225.71,7250.93 "/>
      <polygon id="_143" class="fil89" points="19145.2,11095.17 19126.66,11094.85 19194.8,7250.38 19213.35,7250.71 "/>
      <polygon id="_144" class="fil89" points="19132.84,11094.96 19114.29,11094.63 19182.44,7250.16 19200.98,7250.49 "/>
      <polygon id="_145" class="fil89" points="19120.47,11094.74 19101.93,11094.41 19170.07,7249.94 19188.62,7250.27 "/>
      <polygon id="_146" class="fil89" points="19108.11,11094.52 19089.56,11094.19 19157.71,7249.72 19176.26,7250.05 "/>
      <polygon id="_147" class="fil89" points="19095.75,11094.3 19077.2,11093.97 19145.35,7249.5 19163.89,7249.83 "/>
      <polygon id="_148" class="fil89" points="19083.38,11094.08 19064.84,11093.75 19132.98,7249.28 19151.53,7249.61 "/>
      <polygon id="_149" class="fil89" points="19071.02,11093.86 19052.47,11093.53 19120.62,7249.07 19139.16,7249.39 "/>
      <polygon id="_150" class="fil89" points="19058.65,11093.64 19040.11,11093.31 19108.25,7248.85 19126.8,7249.17 "/>
      <polygon id="_151" class="fil89" points="19046.29,11093.42 19027.74,11093.09 19095.89,7248.63 19114.44,7248.96 "/>
      <polygon id="_152" class="fil89" points="19033.93,11093.2 19015.38,11092.87 19083.53,7248.41 19102.07,7248.74 "/>
      <polygon id="_153" class="fil89" points="19021.56,11092.98 19003.02,11092.65 19071.16,7248.19 19089.71,7248.52 "/>
      <polygon id="_154" class="fil89" points="19009.2,11092.76 18990.65,11092.43 19058.8,7247.97 19077.34,7248.3 "/>
      <polygon id="_155" class="fil89" points="18996.83,11092.54 18978.29,11092.22 19046.43,7247.75 19064.98,7248.08 "/>
      <polygon id="_156" class="fil89" points="18984.47,11092.33 18965.92,11092 19034.07,7247.53 19052.62,7247.86 "/>
      <polygon id="_157" class="fil89" points="18972.11,11092.11 18953.56,11091.78 19021.71,7247.31 19040.25,7247.64 "/>
      <polygon id="_158" class="fil89" points="18959.74,11091.89 18941.2,11091.56 19009.34,7247.09 19027.89,7247.42 "/>
      <polygon id="_159" class="fil89" points="18947.38,11091.67 18928.83,11091.34 18996.98,7246.87 19015.52,7247.2 "/>
      <polygon id="_160" class="fil89" points="18935.01,11091.45 18916.47,11091.12 18984.61,7246.65 19003.16,7246.98 "/>
      <polygon id="_161" class="fil89" points="18922.65,11091.23 18904.1,11090.9 18972.25,7246.44 18990.8,7246.76 "/>
      <polygon id="_162" class="fil89" points="18910.29,11091.01 18891.74,11090.68 18959.89,7246.22 18978.43,7246.54 "/>
      <polygon id="_163" class="fil89" points="18897.92,11090.79 18879.38,11090.46 18947.52,7246 18966.07,7246.33 "/>
      <polygon id="_164" class="fil89" points="18885.56,11090.57 18867.01,11090.24 18935.16,7245.78 18953.7,7246.11 "/>
      <polygon id="_165" class="fil89" points="18873.19,11090.35 18854.65,11090.02 18922.79,7245.56 18941.34,7245.89 "/>
      <polygon id="_166" class="fil89" points="18860.83,11090.13 18842.28,11089.8 18910.43,7245.34 18928.98,7245.67 "/>
      <polygon id="_167" class="fil89" points="18848.47,11089.91 18829.92,11089.59 18898.07,7245.12 18916.61,7245.45 "/>
      <polygon id="_168" class="fil90" points="18836.1,11089.7 18817.56,11089.37 18885.7,7244.9 18904.25,7245.23 "/>
      <polygon id="_169" class="fil90" points="18823.74,11089.48 18805.19,11089.15 18873.34,7244.68 18891.88,7245.01 "/>
      <polygon id="_170" class="fil90" points="18811.38,11089.26 18792.83,11088.93 18860.97,7244.46 18879.52,7244.79 "/>
      <polygon id="_171" class="fil90" points="18799.01,11089.04 18780.47,11088.71 18848.61,7244.24 18867.16,7244.57 "/>
      <polygon id="_172" class="fil90" points="18786.65,11088.82 18768.1,11088.49 18836.25,7244.02 18854.79,7244.35 "/>
      <polygon id="_173" class="fil90" points="18774.28,11088.6 18755.74,11088.27 18823.88,7243.81 18842.43,7244.13 "/>
      <polygon id="_174" class="fil90" points="18761.92,11088.38 18743.37,11088.05 18811.52,7243.59 18830.06,7243.91 "/>
      <polygon id="_175" class="fil90" points="18749.56,11088.16 18731.01,11087.83 18799.15,7243.37 18817.7,7243.7 "/>
      <polygon id="_176" class="fil90" points="18737.19,11087.94 18718.65,11087.61 18786.79,7243.15 18805.34,7243.48 "/>
      <polygon id="_177" class="fil90" points="18724.83,11087.72 18706.28,11087.39 18774.43,7242.93 18792.97,7243.26 "/>
      <polygon id="_178" class="fil90" points="18712.46,11087.5 18693.92,11087.18 18762.06,7242.71 18780.61,7243.04 "/>
      <polygon id="_179" class="fil90" points="18700.1,11087.28 18681.55,11086.96 18749.7,7242.49 18768.24,7242.82 "/>
      <polygon id="_180" class="fil90" points="18687.74,11087.07 18669.19,11086.74 18737.33,7242.27 18755.88,7242.6 "/>
      <polygon id="_181" class="fil90" points="18675.37,11086.85 18656.83,11086.52 18724.97,7242.05 18743.52,7242.38 "/>
      <polygon id="_182" class="fil90" points="18663.01,11086.63 18644.46,11086.3 18712.61,7241.83 18731.15,7242.16 "/>
      <polygon id="_183" class="fil90" points="18650.64,11086.41 18632.1,11086.08 18700.24,7241.61 18718.79,7241.94 "/>
      <polygon id="_184" class="fil90" points="18638.28,11086.19 18619.73,11085.86 18687.88,7241.39 18706.42,7241.72 "/>
      <polygon id="_185" class="fil90" points="18625.92,11085.97 18607.37,11085.64 18675.51,7241.18 18694.06,7241.5 "/>
      <polygon id="_186" class="fil90" points="18613.55,11085.75 18595.01,11085.42 18663.15,7240.96 18681.7,7241.29 "/>
      <polygon id="_187" class="fil90" points="18601.19,11085.53 18582.64,11085.2 18650.79,7240.74 18669.33,7241.07 "/>
      <polygon id="_188" class="fil90" points="18588.82,11085.31 18570.28,11084.98 18638.42,7240.52 18656.97,7240.85 "/>
      <polygon id="_189" class="fil90" points="18576.46,11085.09 18557.91,11084.76 18626.06,7240.3 18644.6,7240.63 "/>
      <polygon id="_190" class="fil90" points="18564.1,11084.87 18545.55,11084.55 18613.69,7240.08 18632.24,7240.41 "/>
      <polygon id="_191" class="fil90" points="18551.73,11084.65 18533.19,11084.33 18601.33,7239.86 18619.88,7240.19 "/>
      <polygon id="_192" class="fil90" points="18539.37,11084.44 18520.82,11084.11 18588.97,7239.64 18607.51,7239.97 "/>
      <polygon id="_193" class="fil90" points="18527,11084.22 18508.46,11083.89 18576.6,7239.42 18595.15,7239.75 "/>
      <polygon id="_194" class="fil90" points="18514.64,11084 18496.09,11083.67 18564.24,7239.2 18582.78,7239.53 "/>
      <polygon id="_195" class="fil90" points="18502.28,11083.78 18483.73,11083.45 18551.87,7238.98 18570.42,7239.31 "/>
      <polygon id="_196" class="fil90" points="18489.91,11083.56 18471.37,11083.23 18539.51,7238.76 18558.06,7239.09 "/>
      <polygon id="_197" class="fil90" points="18477.55,11083.34 18459,11083.01 18527.15,7238.55 18545.69,7238.87 "/>
      <polygon id="_198" class="fil90" points="18465.18,11083.12 18446.64,11082.79 18514.78,7238.33 18533.33,7238.66 "/>
      <polygon id="_199" class="fil90" points="18452.82,11082.9 18434.27,11082.57 18502.42,7238.11 18520.96,7238.44 "/>
      <polygon id="_200" class="fil90" points="18440.46,11082.68 18421.91,11082.35 18490.05,7237.89 18508.6,7238.22 "/>
      <polygon id="_201" class="fil90" points="18428.09,11082.46 18409.55,11082.13 18477.69,7237.67 18496.24,7238 "/>
      <polygon id="_202" class="fil90" points="18415.73,11082.24 18397.18,11081.92 18465.33,7237.45 18483.87,7237.78 "/>
      <polygon id="_203" class="fil90" points="18403.36,11082.02 18384.82,11081.7 18452.96,7237.23 18471.51,7237.56 "/>
      <polygon id="_204" class="fil90" points="18391,11081.81 18372.45,11081.48 18440.6,7237.01 18459.14,7237.34 "/>
      <polygon id="_205" class="fil90" points="18378.64,11081.59 18360.09,11081.26 18428.23,7236.79 18446.78,7237.12 "/>
      <polygon id="_206" class="fil90" points="18366.27,11081.37 18347.73,11081.04 18415.87,7236.57 18434.42,7236.9 "/>
      <polygon id="_207" class="fil90" points="18353.91,11081.15 18335.36,11080.82 18403.51,7236.35 18422.05,7236.68 "/>
      <polygon id="_208" class="fil90" points="18341.54,11080.93 18323,11080.6 18391.14,7236.13 18409.69,7236.46 "/>
      <polygon id="_209" class="fil90" points="18329.18,11080.71 18310.63,11080.38 18378.78,7235.92 18397.32,7236.24 "/>
      <polygon id="_210" class="fil90" points="18316.82,11080.49 18298.27,11080.16 18366.41,7235.7 18384.96,7236.03 "/>
      <polygon id="_211" class="fil90" points="18304.45,11080.27 18285.91,11079.94 18354.05,7235.48 18372.6,7235.81 "/>
      <polygon id="_212" class="fil90" points="18292.09,11080.05 18273.54,11079.72 18341.69,7235.26 18360.23,7235.59 "/>
      <polygon id="_213" class="fil90" points="18279.72,11079.83 18261.18,11079.5 18329.32,7235.04 18347.87,7235.37 "/>
      <polygon id="_214" class="fil90" points="18267.36,11079.61 18248.81,11079.29 18316.96,7234.82 18335.5,7235.15 "/>
      <polygon id="_215" class="fil90" points="18255,11079.39 18236.45,11079.07 18304.59,7234.6 18323.14,7234.93 "/>
      <polygon id="_216" class="fil90" points="18242.63,11079.18 18224.09,11078.85 18292.23,7234.38 18310.78,7234.71 "/>
      <polygon id="_217" class="fil90" points="18230.27,11078.96 18211.72,11078.63 18279.87,7234.16 18298.41,7234.49 "/>
      <polygon id="_218" class="fil90" points="18217.9,11078.74 18199.36,11078.41 18267.5,7233.94 18286.05,7234.27 "/>
      <polygon id="_219" class="fil90" points="18205.54,11078.52 18186.99,11078.19 18255.14,7233.72 18273.68,7234.05 "/>
      <polygon id="_220" class="fil90" points="18193.18,11078.3 18174.63,11077.97 18242.77,7233.5 18261.32,7233.83 "/>
      <polygon id="_221" class="fil90" points="18180.81,11078.08 18162.27,11077.75 18230.41,7233.29 18248.96,7233.61 "/>
      <polygon id="_222" class="fil90" points="18168.45,11077.86 18149.9,11077.53 18218.05,7233.07 18236.59,7233.4 "/>
      <polygon id="_223" class="fil90" points="18156.08,11077.64 18137.54,11077.31 18205.68,7232.85 18224.23,7233.18 "/>
      <polygon id="_224" class="fil90" points="18143.72,11077.42 18125.17,11077.09 18193.32,7232.63 18211.86,7232.96 "/>
      <polygon id="_225" class="fil90" points="18131.36,11077.2 18112.81,11076.87 18180.96,7232.41 18199.5,7232.74 "/>
      <polygon id="_226" class="fil90" points="18118.99,11076.98 18100.45,11076.66 18168.59,7232.19 18187.14,7232.52 "/>
      <polygon id="_227" class="fil90" points="18106.63,11076.77 18088.08,11076.44 18156.23,7231.97 18174.77,7232.3 "/>
      <polygon id="_228" class="fil90" points="18094.26,11076.55 18075.72,11076.22 18143.86,7231.75 18162.41,7232.08 "/>
      <polygon id="_229" class="fil90" points="18081.9,11076.33 18063.35,11076 18131.5,7231.53 18150.05,7231.86 "/>
      <polygon id="_230" class="fil90" points="18069.54,11076.11 18050.99,11075.78 18119.14,7231.31 18137.68,7231.64 "/>
      <polygon id="_231" class="fil90" points="18057.17,11075.89 18038.63,11075.56 18106.77,7231.09 18125.32,7231.42 "/>
      <polygon id="_232" class="fil90" points="18044.81,11075.67 18026.26,11075.34 18094.41,7230.88 18112.95,7231.2 "/>
      <polygon id="_233" class="fil90" points="18032.44,11075.45 18013.9,11075.12 18082.04,7230.66 18100.59,7230.98 "/>
      <polygon id="_234" class="fil91" points="18020.08,11075.23 18001.53,11074.9 18069.68,7230.44 18088.23,7230.77 "/>
      <polygon id="_235" class="fil91" points="18007.72,11075.01 17989.17,11074.68 18057.32,7230.22 18075.86,7230.55 "/>
      <polygon id="_236" class="fil91" points="17995.35,11074.79 17976.81,11074.46 18044.95,7230 18063.5,7230.33 "/>
      <polygon id="_237" class="fil91" points="17982.99,11074.57 17964.44,11074.24 18032.59,7229.78 18051.13,7230.11 "/>
      <polygon id="_238" class="fil91" points="17970.62,11074.35 17952.08,11074.03 18020.22,7229.56 18038.77,7229.89 "/>
      <polygon id="_239" class="fil91" points="17958.26,11074.14 17939.71,11073.81 18007.86,7229.34 18026.41,7229.67 "/>
      <polygon id="_240" class="fil91" points="17945.9,11073.92 17927.35,11073.59 17995.5,7229.12 18014.04,7229.45 "/>
      <polygon id="_241" class="fil91" points="17933.53,11073.7 17914.99,11073.37 17983.13,7228.9 18001.68,7229.23 "/>
      <polygon id="_242" class="fil91" points="17921.17,11073.48 17902.62,11073.15 17970.77,7228.68 17989.31,7229.01 "/>
      <polygon id="_243" class="fil91" points="17908.8,11073.26 17890.26,11072.93 17958.4,7228.46 17976.95,7228.79 "/>
      <polygon id="_244" class="fil91" points="17896.44,11073.04 17877.89,11072.71 17946.04,7228.25 17964.59,7228.57 "/>
      <polygon id="_245" class="fil91" points="17884.08,11072.82 17865.53,11072.49 17933.68,7228.03 17952.22,7228.35 "/>
      <polygon id="_246" class="fil91" points="17871.71,11072.6 17853.17,11072.27 17921.31,7227.81 17939.86,7228.14 "/>
      <polygon id="_247" class="fil91" points="17859.35,11072.38 17840.8,11072.05 17908.95,7227.59 17927.49,7227.92 "/>
      <polygon id="_248" class="fil91" points="17846.98,11072.16 17828.44,11071.83 17896.58,7227.37 17915.13,7227.7 "/>
      <polygon id="_249" class="fil91" points="17834.62,11071.94 17816.07,11071.61 17884.22,7227.15 17902.77,7227.48 "/>
      <polygon id="_250" class="fil91" points="17822.26,11071.72 17803.71,11071.4 17871.86,7226.93 17890.4,7227.26 "/>
      <polygon id="_251" class="fil91" points="17809.89,11071.51 17791.35,11071.18 17859.49,7226.71 17878.04,7227.04 "/>
      <polygon id="_252" class="fil91" points="17797.53,11071.29 17778.98,11070.96 17847.13,7226.49 17865.67,7226.82 "/>
      <polygon id="_253" class="fil92" points="17785.16,11071.07 17766.62,11070.74 17834.76,7226.27 17853.31,7226.6 "/>
      <polygon id="_254" class="fil93" points="17772.8,11070.85 17774.93,11070.89 17843.07,7226.42 17840.95,7226.38 "/>
     </g>
    </g>
    <path class="fil1" d="M24424.8 8908.32l-1.3 453.37c-0.08,33.12 -49.52,55.22 -93.16,55.22l-2056.58 0 6.05 -563.22 2052.34 -1.94c43.7,-0.04 92.74,23.33 92.65,56.57z"/>
    <path class="fil94" d="M21741.5 8178.63l484.35 0c30.38,0 55.22,24.84 55.22,55.22l0 464.47 0 1336.48c0,30.38 -24.84,55.22 -55.22,55.22l-484.35 0c-30.38,0 -55.22,-24.84 -55.22,-55.22l0 -1800.95c0,-30.38 24.84,-55.22 55.22,-55.22z"/>
   </g>
   <polygon class="fil4" points="-0,0 38946.7,0 38946.7,22013.4 -0,22013.4 "/>
  </g>
 </g>
</svg>
